<svg xmlns="http://www.w3.org/2000/svg" version="1.1" xmlns:xlink="http://www.w3.org/1999/xlink" xmlns:svgjs="http://svgjs.dev/svgjs" width="2000" height="353" viewBox="0 0 2000 353"><g transform="matrix(1,0,0,1,-1.2121212121213603,-0.7555490843182042)"><svg viewBox="0 0 396 70" data-background-color="#282634" preserveAspectRatio="xMidYMid meet" height="353" width="2000" xmlns="http://www.w3.org/2000/svg" xmlns:xlink="http://www.w3.org/1999/xlink"><g id="tight-bounds" transform="matrix(1,0,0,1,0.24000000000003752,0.14982559745686785)"><svg viewBox="0 0 395.5199999999999 69.70034880508628" height="69.70034880508628" width="395.5199999999999"><g><svg viewBox="0 0 447.00710615245674 78.77364284278536" height="69.70034880508628" width="395.5199999999999"><g transform="matrix(1,0,0,1,51.487106152456775,10.886950638908836)"><svg viewBox="0 0 395.52 56.99974156496769" height="56.99974156496769" width="395.52"><g id="textblocktransform"><svg viewBox="0 0 395.52 56.99974156496769" height="56.99974156496769" width="395.52" id="textblock"><g><svg viewBox="0 0 395.52 56.99974156496769" height="56.99974156496769" width="395.52"><g transform="matrix(1,0,0,1,0,0)"><svg width="395.52" viewBox="-0.73 -37.7 272.04 39.21" height="56.99974156496769" data-palette-color="#ff4057"><path d="M22.9-34.91L22.9-34.91Q22.8-34.72 22.83-34.52 22.85-34.33 22.85-34.08L22.85-34.08Q22.75-33.5 22.85-33.5 22.95-33.5 22.95-33.4L22.95-33.4 22.61-32.91Q22.61-32.62 22.49-32.37 22.36-32.13 22.41-31.79L22.41-31.79Q22.27-31.54 22.14-31.3 22.02-31.05 21.78-30.81L21.78-30.81 21.14-30.81Q20.61-30.81 20-30.74 19.38-30.66 18.8-30.66L18.8-30.66Q18.7-30.66 18.55-30.69 18.41-30.71 18.26-30.71L18.26-30.71Q18.16-30.71 18.02-30.69 17.87-30.66 17.68-30.66L17.68-30.66Q16.94-30.66 16.24-30.74 15.53-30.81 14.75-30.81L14.75-30.81Q14.55-30.81 14.36-30.81 14.16-30.81 13.92-30.76L13.92-30.76Q13.87-29.93 13.84-29.08 13.82-28.22 13.82-27.34L13.82-27.34Q13.82-27.1 13.77-26.83 13.72-26.56 13.72-26.32L13.72-26.32Q13.67-25.68 13.65-25.1 13.62-24.51 13.62-23.88L13.62-23.88Q13.62-22.51 13.65-21.14 13.67-19.78 13.72-18.36L13.72-18.36Q13.77-17.63 13.82-16.94 13.87-16.26 13.87-15.53L13.87-15.53Q13.87-13.87 13.82-12.23 13.77-10.6 13.77-8.94L13.77-8.94Q13.77-8.4 13.72-7.93 13.67-7.47 13.67-6.93L13.67-6.93Q13.67-5.81 13.72-4.69 13.77-3.56 13.77-2.44L13.77-2.44Q13.77-1.9 13.75-1.37 13.72-0.83 13.72-0.29L13.72-0.29Q13.48 0.1 13.38 0.39 13.28 0.68 12.79 0.68L12.79 0.68Q12.45 0.59 12.48 0.46 12.5 0.34 12.4 0.24L12.4 0.24Q11.96 0.2 11.74 0.32 11.52 0.44 11.23 0.54L11.23 0.54Q11.08 0.49 10.91 0.49 10.74 0.49 10.6 0.49L10.6 0.49Q10.5 0.49 10.4 0.56 10.3 0.63 9.96 0.63L9.96 0.63Q9.67 0.68 9.62 0.54 9.57 0.39 9.33 0.39L9.33 0.39Q9.08 0.54 8.76 0.61 8.45 0.68 8.15 0.68L8.15 0.68Q7.86 0.49 7.89 0.32 7.91 0.15 7.81-0.05L7.81-0.05Q7.76-0.15 7.64-0.32 7.52-0.49 7.42-0.59L7.42-0.59Q7.52-1.27 7.57-1.81 7.62-2.34 7.62-2.98L7.62-2.98Q7.62-4.25 7.52-5.47 7.42-6.69 7.42-7.96L7.42-7.96Q7.42-8.35 7.52-8.79 7.62-9.23 7.62-9.72L7.62-9.72Q7.52-10.11 7.57-10.18 7.62-10.25 7.62-10.35L7.62-10.35Q7.62-10.64 7.59-10.94 7.57-11.23 7.57-11.52L7.57-11.52Q7.57-12.11 7.59-12.7 7.62-13.28 7.62-13.87L7.62-13.87Q7.62-14.11 7.59-14.38 7.57-14.65 7.57-14.89L7.57-14.89Q7.52-15.33 7.54-15.82 7.57-16.31 7.57-16.8L7.57-16.8Q7.57-19.14 7.5-21.44 7.42-23.73 7.42-26.07L7.42-26.07Q7.42-27.25 7.54-28.39 7.67-29.54 7.67-30.71L7.67-30.71Q7.67-30.86 7.57-31.1 7.47-31.35 7.37-31.45L7.37-31.45Q7.13-31.45 6.91-31.47 6.69-31.49 6.45-31.49L6.45-31.49Q5.91-31.49 5.42-31.35L5.42-31.35Q4.49-31.3 3.64-31.23 2.78-31.15 1.9-31.1L1.9-31.1Q1.32-31.15 1.2-31.13 1.07-31.1 0.93-31.1L0.93-31.1Q0.54-31.1 0.34-31.3L0.34-31.3 0.34-31.93Q0.05-32.52 0.1-32.57 0.15-32.62 0.15-32.71L0.15-32.71Q0.15-32.86-0.12-33.03-0.39-33.2-0.39-33.59L-0.39-33.59Q-0.44-33.98-0.59-34.18-0.73-34.38-0.73-34.57L-0.73-34.57Q-0.73-34.91-0.59-35.35L-0.59-35.35Q-0.15-35.6 0.27-35.69 0.68-35.79 1.22-35.94L1.22-35.94Q1.51-36.04 1.76-36.13 2-36.23 2.29-36.28L2.29-36.28Q2.64-36.33 2.98-36.33 3.32-36.33 3.66-36.38L3.66-36.38Q4.39-36.52 5.2-36.62 6.01-36.72 6.74-36.72L6.74-36.72Q7.42-36.72 8.11-36.55 8.79-36.38 9.33-36.38L9.33-36.38Q10.11-36.38 10.82-36.28 11.52-36.18 12.3-36.18L12.3-36.18Q12.4-36.18 12.62-36.11 12.84-36.04 13.13-36.04L13.13-36.04 17.87-36.04Q18.26-35.94 18.43-35.99 18.6-36.04 18.75-36.04L18.75-36.04Q19.14-36.04 19.48-35.99 19.82-35.94 20.21-35.94L20.21-35.94Q20.56-35.94 20.75-35.99L20.75-35.99Q21.14-35.94 21.48-35.77 21.83-35.6 22.27-35.6L22.27-35.6Q22.46-35.45 22.56-35.23 22.66-35.01 22.9-34.91ZM33.15-33.2L33.15-33.2Q33.15-32.76 32.86-32.54 32.57-32.32 32.32-31.98L32.32-31.98Q31.83-31.54 31.47-31.08 31.1-30.62 30.61-30.18L30.61-30.18Q30.42-29.98 30.08-29.66 29.73-29.35 29.37-29.03 29-28.71 28.64-28.47 28.27-28.22 28.02-28.22L28.02-28.22Q27.63-28.22 27.02-28.49 26.41-28.76 25.97-28.86L25.97-28.86Q25.63-28.91 25.36-28.93 25.1-28.96 24.85-29.2L24.85-29.2Q23.97-29.39 23.73-29.81 23.48-30.22 23.19-30.66L23.19-30.66Q23.19-30.86 23.34-30.91 23.48-30.96 23.58-31.1L23.58-31.1Q24.07-31.74 24.41-32.15 24.75-32.57 25.19-33.01L25.19-33.01Q26.02-33.74 26.78-34.52 27.54-35.3 28.37-35.99L28.37-35.99Q28.76-36.04 28.95-36.28 29.15-36.52 29.54-36.52L29.54-36.52Q29.93-36.52 30.2-36.28 30.47-36.04 30.69-35.72 30.91-35.4 31.13-35.08 31.35-34.77 31.64-34.62L31.64-34.62Q31.98-34.38 32.57-33.98 33.15-33.59 33.15-33.2ZM26.46-24.12L26.46-24.12Q26.8-23.93 26.98-23.61 27.15-23.29 27.49-23.14L27.49-23.14Q27.78-23 28.12-23 28.46-23 28.71-22.9L28.71-22.9Q28.9-22.8 29-22.66 29.1-22.51 29.2-22.36L29.2-22.36Q29.49-22.12 30.1-21.92 30.71-21.73 30.91-21.48L30.91-21.48Q31.25-21.04 31.42-20.36 31.59-19.68 31.69-18.92 31.78-18.16 31.83-17.41 31.88-16.65 31.98-16.11L31.98-16.11Q32.08-14.99 32.22-13.89 32.37-12.79 32.37-11.67L32.37-11.67Q32.37-10.55 32.27-9.38 32.18-8.2 32.18-7.08L32.18-7.08Q32.18-6.49 32.15-5.62 32.13-4.74 31.74-4.25L31.74-4.25Q31.69-4.05 31.69-3.56L31.69-3.56 31.69-2Q31.69-1.71 31.74-1.42 31.78-1.12 31.78-0.78L31.78-0.78Q31.78-0.24 31.49 0L31.49 0Q31.35-0.05 31.17-0.05 31-0.05 30.86-0.05L30.86-0.05Q30.32-0.05 30.08 0.15L30.08 0.15Q29.54 0.1 29.05 0.05 28.56 0 28.02 0L28.02 0Q27.19 0 26.22 0.24L26.22 0.24Q26.02-0.24 26.05-0.78 26.07-1.32 25.83-1.76L25.83-1.76Q25.78-1.9 25.75-2.03 25.73-2.15 25.73-2.29L25.73-2.29Q25.88-2.88 25.88-3.1 25.88-3.32 25.88-3.56L25.88-3.56Q25.88-4.25 25.83-4.96 25.78-5.66 25.88-6.35L25.88-6.35Q25.88-6.59 25.95-6.79 26.02-6.98 26.02-7.23L26.02-7.23Q26.02-7.47 25.93-7.57 25.83-7.67 25.83-7.81L25.83-7.81Q25.83-7.96 25.85-8.3 25.88-8.64 25.97-8.74L25.97-8.74Q25.97-9.13 26-9.5 26.02-9.86 26.02-10.21L26.02-10.21Q26.02-10.99 25.97-11.77 25.93-12.55 25.93-13.28L25.93-13.28Q25.93-13.62 25.88-13.72 25.83-13.82 25.78-13.87 25.73-13.92 25.63-13.94 25.53-13.96 25.49-14.11L25.49-14.11Q25.68-16.26 25.34-18.41 25-20.56 25-22.75L25-22.75Q25-23.1 25.1-23.27 25.19-23.44 25.34-23.54 25.49-23.63 25.61-23.75 25.73-23.88 25.78-24.12L25.78-24.12Q26.17-24.02 26.46-24.12ZM46.14-13.33L46.14-13.33Q46.24-13.09 46.87-12.28 47.5-11.47 48.31-10.52 49.12-9.57 49.9-8.69 50.68-7.81 50.97-7.42L50.97-7.42Q51.9-6.05 52.88-4.74 53.85-3.42 54.73-2L54.73-2Q54.98-1.76 55.12-1.39 55.27-1.03 55.27-0.63L55.27-0.63Q55.27-0.2 55.05-0.17 54.83-0.15 54.58-0.05L54.58-0.05Q54.1 0.29 53.71 0.34 53.32 0.39 53.07 0.39L53.07 0.39Q52.53 0.39 51.9 0.37 51.26 0.34 50.83 0.44L50.83 0.44Q50.68 0.49 50.48 0.61 50.29 0.73 50.19 0.73L50.19 0.73Q49.8 0.73 49.63 0.61 49.46 0.49 49.16 0.39L49.16 0.39Q48.77-0.05 48.46-0.54 48.14-1.03 47.8-1.51L47.8-1.51Q47.5-1.86 47.16-2.12 46.82-2.39 46.53-2.78L46.53-2.78Q45.75-3.91 44.94-4.93 44.14-5.96 43.31-6.98L43.31-6.98Q42.91-7.52 42.45-8.01 41.99-8.5 41.6-8.98L41.6-8.98Q41.21-9.52 40.86-10.11 40.52-10.69 40.13-11.23L40.13-11.23Q39.84-11.72 39.3-12.43 38.76-13.13 38.18-13.87 37.59-14.6 36.98-15.26 36.37-15.92 35.93-16.26L35.93-16.26Q35.93-16.6 35.74-16.75 35.54-16.89 35.3-17.09L35.3-17.09Q35.2-17.33 35.05-17.55 34.91-17.77 34.91-18.07L34.91-18.07Q34.91-18.26 34.96-18.41 35-18.55 35.05-18.7L35.05-18.7Q35.15-18.9 35.18-19.07 35.2-19.24 35.3-19.43L35.3-19.43Q35.54-20.07 36.01-20.56 36.47-21.04 36.71-21.68L36.71-21.68Q36.76-21.88 36.76-22.05 36.76-22.22 36.86-22.41L36.86-22.41Q37.01-22.71 37.3-23 37.59-23.29 37.84-23.63L37.84-23.63Q38.08-24.07 38.33-24.51 38.57-24.95 38.81-25.39L38.81-25.39Q39.5-26.51 40.33-27.56 41.16-28.61 41.89-29.64L41.89-29.64Q42.57-30.62 43.16-31.57 43.75-32.52 44.43-33.5L44.43-33.5Q44.77-33.98 45.21-34.59 45.65-35.21 46.11-35.79 46.58-36.38 47.07-36.89 47.55-37.4 48.04-37.65L48.04-37.65Q48.87-37.74 49.12-37.38 49.36-37.01 49.8-37.01L49.8-37.01Q50.48-36.87 50.73-36.57 50.97-36.28 51.22-36.04L51.22-36.04Q51.85-36.04 52.29-35.79 52.73-35.55 53.17-35.06L53.17-35.06Q52.97-34.52 52.66-34.08 52.34-33.64 52.09-33.15L52.09-33.15Q51.7-33.01 51.53-32.67 51.36-32.32 51.02-32.08L51.02-32.08Q50.48-31.25 49.95-30.44 49.41-29.64 48.87-28.91L48.87-28.91Q48.63-28.61 48.31-28.44 47.99-28.27 47.8-27.93L47.8-27.93Q47.7-27.78 47.65-27.61 47.6-27.44 47.5-27.29L47.5-27.29Q46.92-26.37 46.19-25.49 45.45-24.61 44.92-23.63L44.92-23.63Q44.67-23.29 44.53-22.92 44.38-22.56 44.18-22.22L44.18-22.22Q43.99-21.92 43.62-21.39 43.26-20.85 42.89-20.29 42.52-19.73 42.26-19.21 41.99-18.7 41.99-18.36L41.99-18.36Q42.04-18.12 42.62-17.38 43.21-16.65 43.92-15.82 44.62-14.99 45.28-14.26 45.94-13.53 46.14-13.33ZM78.51 0.15L78.17 0.1Q77.92 0.68 77.14 1.07L77.14 1.07Q76.8 0.88 76.53 0.61 76.26 0.34 75.87 0.2L75.87 0.2Q75.58-0.39 75.43-0.51 75.29-0.63 75.09-0.68L75.09-0.68Q74.8-0.93 74.6-1.27 74.41-1.61 74.16-1.86L74.16-1.86Q74.06-1.9 73.8-2.17 73.53-2.44 73.23-2.73 72.94-3.03 72.7-3.3 72.45-3.56 72.4-3.56L72.4-3.56Q71.97-3.86 71.62-4.2L71.62-4.2Q71.53-4.35 71.4-4.52 71.28-4.69 71.18-4.79L71.18-4.79Q70.79-4.93 70.55-5.2 70.31-5.47 70.09-5.81 69.87-6.15 69.6-6.42 69.33-6.69 68.99-6.84L68.99-6.84Q68.64-7.32 68.16-7.64 67.67-7.96 67.33-8.4L67.33-8.4Q67.03-8.74 66.69-9.06 66.35-9.38 65.96-9.67L65.96-9.67Q65.76-9.96 65.32-10.52 64.89-11.08 64.54-11.13L64.54-11.13Q64.49-10.01 64.47-8.89 64.45-7.76 64.4-6.64L64.4-6.64Q64.4-6.05 64.42-5.42 64.45-4.79 64.4-4.15L64.4-4.15Q64.35-3.91 64.27-3.64 64.2-3.37 64.2-3.08L64.2-3.08Q64.2-2.49 64.13-2.32 64.06-2.15 64.01-2L64.01-2Q63.86-1.51 63.74-0.81 63.62-0.1 63.22 0.29L63.22 0.29Q62.69 0.34 62.39 0.2L62.39 0.2Q62.3 0.29 62.2 0.39 62.1 0.49 61.91 0.49L61.91 0.49Q61.81 0.39 61.59 0.32 61.37 0.24 61.27 0.24L61.27 0.24Q61.03 0.24 60.76 0.34 60.49 0.44 60.25 0.44L60.25 0.44Q60 0.44 59.83 0.32 59.66 0.2 59.42 0.2L59.42 0.2Q59.27 0.2 59.07 0.34 58.88 0.49 58.68 0.49L58.68 0.49Q58.44 0.49 58.27 0.42 58.1 0.34 57.9 0.29L57.9 0.29Q57.9 0.15 57.93 0 57.95-0.15 57.9-0.29L57.9-0.29 57.71-1.51Q57.76-1.86 57.83-2.2 57.9-2.54 57.95-2.83L57.95-2.83Q58-3.61 58.02-4.32 58.05-5.03 58.05-5.76L58.05-5.76Q58.05-7.03 58.02-8.25 58-9.47 58.05-10.74L58.05-10.74Q58.1-11.18 58.17-11.65 58.24-12.11 58.24-12.55L58.24-12.55Q58.24-13.82 58.39-15.04 58.54-16.26 58.64-17.53L58.64-17.53Q58.73-18.51 58.73-19.43 58.73-20.36 58.73-21.29L58.73-21.29Q58.73-23.1 58.68-24.88 58.64-26.66 58.64-28.42L58.64-28.42Q58.64-29 58.68-30 58.73-31.01 58.59-31.54L58.59-31.54Q58.64-32.96 58.59-34.33L58.59-34.33Q58.78-34.42 58.81-34.62 58.83-34.81 58.83-35.01L58.83-35.01 58.83-35.69Q59.27-36.18 59.56-36.18L59.56-36.18Q59.81-36.18 60.05-36.13 60.3-36.08 60.54-35.94L60.54-35.94Q61.17-36.08 61.37-35.99 61.56-35.89 61.81-35.79L61.81-35.79Q62.2-35.84 62.35-36.13L62.35-36.13Q62.88-36.04 62.88-35.89 62.88-35.74 62.98-35.6L62.98-35.6Q63.47-35.55 63.64-35.67 63.81-35.79 64.06-35.84L64.06-35.84Q64.49-35.74 64.64-35.6L64.64-35.6Q64.64-35.3 64.79-34.94 64.93-34.57 64.93-33.98L64.93-33.98Q64.93-33.54 64.89-33.13 64.84-32.71 64.84-32.32L64.84-32.32Q64.84-31.64 64.89-31.01 64.93-30.37 64.93-29.69L64.93-29.69Q64.93-29.49 64.91-29.32 64.89-29.15 64.89-28.96L64.89-28.96Q64.89-27.1 64.98-25.2 65.08-23.29 65.08-21.39L65.08-21.39Q65.08-21.29 65.03-21.12 64.98-20.95 65.08-20.85L65.08-20.85Q65.91-21.73 66.5-22.73 67.08-23.73 67.77-24.71L67.77-24.71Q68.35-25.44 68.96-26.46 69.57-27.49 70.01-28.32L70.01-28.32Q70.21-28.61 70.35-28.91 70.5-29.2 70.7-29.49L70.7-29.49Q70.79-29.74 70.96-29.96 71.14-30.18 71.23-30.47L71.23-30.47Q71.48-30.86 71.67-31.23 71.87-31.59 72.11-31.98L72.11-31.98Q72.36-32.37 72.62-32.69 72.89-33.01 73.14-33.35L73.14-33.35Q73.53-33.98 73.97-34.64 74.41-35.3 74.75-35.99L74.75-35.99Q75.24-36.23 75.63-36.55 76.02-36.87 76.46-37.11L76.46-37.11Q76.95-36.47 77.17-36.23 77.39-35.99 77.78-35.94L77.78-35.94Q77.87-35.79 77.9-35.6 77.92-35.4 78.07-35.3L78.07-35.3Q78.65-35.25 78.75-35.3L78.75-35.3Q78.9-35.06 79.17-34.94 79.44-34.81 79.68-34.72L79.68-34.72Q79.68-34.57 79.68-34.4 79.68-34.23 79.73-34.13L79.73-34.13Q80.31-33.89 80.31-33.2L80.31-33.2Q79.39-31.54 78.29-30.05 77.19-28.56 76.36-26.86L76.36-26.86Q76.12-26.32 75.8-25.83 75.48-25.34 75.29-24.8L75.29-24.8Q74.94-24.46 74.75-24.1 74.55-23.73 74.26-23.39L74.26-23.39Q74.06-23.14 73.87-22.88 73.67-22.61 73.48-22.36L73.48-22.36Q73.09-21.83 72.77-21.26 72.45-20.7 72.01-20.17L72.01-20.17Q71.72-19.68 71.33-19.19L71.33-19.19Q70.94-18.65 70.67-17.99 70.4-17.33 70.01-16.8L70.01-16.8Q69.62-16.21 69.6-15.94 69.57-15.67 69.33-15.04L69.33-15.04Q69.67-14.5 70.11-14.06 70.55-13.62 71.04-13.23L71.04-13.23Q71.43-12.7 71.94-12.28 72.45-11.87 72.99-11.38L72.99-11.38Q73.19-11.18 73.33-11.01 73.48-10.84 73.67-10.69L73.67-10.69Q74.21-10.11 74.97-9.57 75.72-9.03 76.41-8.54L76.41-8.54Q76.95-8.06 77.75-7.35 78.56-6.64 79.44-5.83 80.31-5.03 81-4.32 81.68-3.61 81.68-3.42L81.68-3.42Q81.44-2.69 81.12-2.51 80.8-2.34 80.66-2L80.66-2Q80.36-1.9 80.36-1.81 80.36-1.71 80.22-1.46L80.22-1.46Q79.88-1.22 79.63-0.9 79.39-0.59 79.14-0.29L79.14-0.29Q78.95-0.2 78.78-0.12 78.61-0.05 78.51 0.15L78.51 0.15ZM91.59-12.79L91.59-12.79Q91.69-12.55 92.3-11.77 92.91-10.99 93.69-10.06 94.47-9.13 95.18-8.28 95.89-7.42 96.18-7.03L96.18-7.03Q96.72-6.35 97.23-5.69 97.74-5.03 98.18-4.3L98.18-4.3 99.06-2.83Q99.45-2.34 99.77-2 100.09-1.66 100.28-1.07L100.28-1.07Q100.38-0.68 100.38-0.54L100.38-0.54Q100.38-0.2 100.14-0.05L100.14-0.05Q99.75-0.05 99.72 0.07 99.7 0.2 99.5 0.29L99.5 0.29Q99.31 0.39 98.89 0.42 98.48 0.44 98.23 0.44L98.23 0.44Q97.79 0.44 97.13 0.42 96.47 0.39 96.08 0.54L96.08 0.54Q95.99 0.59 95.79 0.68 95.6 0.78 95.5 0.78L95.5 0.78Q95.11 0.78 94.94 0.66 94.77 0.54 94.47 0.49L94.47 0.49Q94.08 0.05 93.81-0.42 93.54-0.88 93.2-1.37L93.2-1.37Q92.86-1.71 92.52-1.98 92.18-2.25 91.93-2.59L91.93-2.59Q91.2-3.66 90.42-4.69 89.64-5.71 88.81-6.69L88.81-6.69Q88.42-7.23 87.98-7.67 87.54-8.11 87.15-8.64L87.15-8.64Q86.76-9.13 86.42-9.69 86.07-10.25 85.73-10.79L85.73-10.79Q85.44-11.23 84.95-11.94 84.46-12.65 83.88-13.35 83.29-14.06 82.7-14.7 82.12-15.33 81.73-15.67L81.73-15.67Q81.68-15.97 81.48-16.14 81.29-16.31 81.04-16.46L81.04-16.46Q80.95-16.7 80.82-16.92 80.7-17.14 80.7-17.38L80.7-17.38Q80.7-17.72 80.85-18.02L80.85-18.02Q80.95-18.21 80.97-18.38 81-18.55 81.09-18.75L81.09-18.75Q81.34-19.29 81.75-19.8 82.17-20.31 82.41-20.9L82.41-20.9Q82.51-21.04 82.51-21.22 82.51-21.39 82.61-21.53L82.61-21.53Q82.7-21.92 83.02-22.19 83.34-22.46 83.53-22.8L83.53-22.8Q83.78-23.19 84-23.61 84.22-24.02 84.46-24.51L84.46-24.51Q85.2-25.73 86-26.88 86.81-28.03 87.64-29.2L87.64-29.2Q88.27-30.18 88.88-31.08 89.49-31.98 90.13-32.91L90.13-32.91Q90.47-33.35 90.86-33.94 91.25-34.52 91.71-35.11 92.18-35.69 92.67-36.18 93.15-36.67 93.64-36.96L93.64-36.96Q94.37-37.01 94.62-36.65 94.86-36.28 95.35-36.28L95.35-36.28Q95.99-36.13 96.18-35.89 96.38-35.64 96.62-35.4L96.62-35.4Q97.3-35.4 97.72-35.16 98.13-34.91 98.53-34.42L98.53-34.42Q98.38-33.89 98.09-33.47 97.79-33.06 97.55-32.62L97.55-32.62Q97.16-32.42 96.99-32.08 96.82-31.74 96.47-31.54L96.47-31.54Q95.99-30.71 95.45-29.96 94.91-29.2 94.37-28.47L94.37-28.47Q94.08-28.03 93.76-27.69 93.45-27.34 93.2-26.95L93.2-26.95Q93.11-26.81 93.03-26.64 92.96-26.46 92.86-26.32L92.86-26.32Q92.28-25.39 91.59-24.58 90.91-23.78 90.32-22.8L90.32-22.8Q90.13-22.46 90-22.09 89.88-21.73 89.69-21.39L89.69-21.39Q89.49-21.09 89.13-20.61 88.76-20.12 88.42-19.56 88.08-18.99 87.81-18.48 87.54-17.97 87.54-17.63L87.54-17.63Q87.59-17.38 88.15-16.67 88.71-15.97 89.42-15.16 90.13-14.36 90.76-13.65 91.4-12.94 91.59-12.79ZM94.81-21.68L94.81-21.68Q95.16-20.95 95.55-20.41L95.55-20.41Q95.69-20.21 95.89-20.07 96.08-19.92 96.18-19.68L96.18-19.68Q96.28-19.58 96.38-19.26 96.47-18.95 96.57-18.8L96.57-18.8Q96.72-18.41 97.16-17.92 97.6-17.43 97.6-17.04L97.6-17.04Q97.6-16.8 97.5-16.5 97.4-16.21 97.35-15.97L97.35-15.97Q97.3-15.67 97.3-15.36 97.3-15.04 97.11-14.79L97.11-14.79Q96.87-14.55 96.57-14.5 96.28-14.45 96.03-14.26L96.03-14.26Q95.94-14.16 95.74-13.92 95.55-13.67 95.35-13.38 95.16-13.09 94.99-12.82 94.81-12.55 94.81-12.4L94.81-12.4Q94.23-12.35 94.06-12.38 93.89-12.4 93.69-12.35L93.69-12.35Q93.45-12.6 93.18-12.77 92.91-12.94 92.52-13.09L92.52-13.09Q92.42-13.48 92.08-13.99 91.74-14.5 91.49-14.84L91.49-14.84 91.15-15.28Q90.42-16.31 89.81-17.26 89.2-18.21 88.91-19.38L88.91-19.38Q89.83-20.07 90.35-20.41 90.86-20.75 91.45-21.04 92.03-21.34 92.59-21.61 93.15-21.88 93.64-22.27L93.64-22.27Q94.03-22.27 94.18-22.22 94.33-22.17 94.37-22.12 94.42-22.07 94.5-21.95 94.57-21.83 94.81-21.68ZM123.28-34.91L123.28-34.91Q123.18-34.72 123.21-34.52 123.23-34.33 123.23-34.08L123.23-34.08Q123.13-33.5 123.23-33.5 123.33-33.5 123.33-33.4L123.33-33.4 122.99-32.91Q122.99-32.62 122.86-32.37 122.74-32.13 122.79-31.79L122.79-31.79Q122.64-31.54 122.52-31.3 122.4-31.05 122.16-30.81L122.16-30.81 121.52-30.81Q120.98-30.81 120.37-30.74 119.76-30.66 119.18-30.66L119.18-30.66Q119.08-30.66 118.93-30.69 118.79-30.71 118.64-30.71L118.64-30.71Q118.54-30.71 118.4-30.69 118.25-30.66 118.05-30.66L118.05-30.66Q117.32-30.66 116.61-30.74 115.91-30.81 115.12-30.81L115.12-30.81Q114.93-30.81 114.73-30.81 114.54-30.81 114.29-30.76L114.29-30.76Q114.25-29.93 114.22-29.08 114.2-28.22 114.2-27.34L114.2-27.34Q114.2-27.1 114.15-26.83 114.1-26.56 114.1-26.32L114.1-26.32Q114.05-25.68 114.03-25.1 114-24.51 114-23.88L114-23.88Q114-22.51 114.03-21.14 114.05-19.78 114.1-18.36L114.1-18.36Q114.15-17.63 114.2-16.94 114.25-16.26 114.25-15.53L114.25-15.53Q114.25-13.87 114.2-12.23 114.15-10.6 114.15-8.94L114.15-8.94Q114.15-8.4 114.1-7.93 114.05-7.47 114.05-6.93L114.05-6.93Q114.05-5.81 114.1-4.69 114.15-3.56 114.15-2.44L114.15-2.44Q114.15-1.9 114.12-1.37 114.1-0.83 114.1-0.29L114.1-0.29Q113.85 0.1 113.76 0.39 113.66 0.68 113.17 0.68L113.17 0.68Q112.83 0.59 112.85 0.46 112.88 0.34 112.78 0.24L112.78 0.24Q112.34 0.2 112.12 0.32 111.9 0.44 111.61 0.54L111.61 0.54Q111.46 0.49 111.29 0.49 111.12 0.49 110.97 0.49L110.97 0.49Q110.88 0.49 110.78 0.56 110.68 0.63 110.34 0.63L110.34 0.63Q110.05 0.68 110 0.54 109.95 0.39 109.7 0.39L109.7 0.39Q109.46 0.54 109.14 0.61 108.83 0.68 108.53 0.68L108.53 0.68Q108.24 0.49 108.26 0.32 108.29 0.15 108.19-0.05L108.19-0.05Q108.14-0.15 108.02-0.32 107.9-0.49 107.8-0.59L107.8-0.59Q107.9-1.27 107.95-1.81 108-2.34 108-2.98L108-2.98Q108-4.25 107.9-5.47 107.8-6.69 107.8-7.96L107.8-7.96Q107.8-8.35 107.9-8.79 108-9.23 108-9.72L108-9.72Q107.9-10.11 107.95-10.18 108-10.25 108-10.35L108-10.35Q108-10.64 107.97-10.94 107.95-11.23 107.95-11.52L107.95-11.52Q107.95-12.11 107.97-12.7 108-13.28 108-13.87L108-13.87Q108-14.11 107.97-14.38 107.95-14.65 107.95-14.89L107.95-14.89Q107.9-15.33 107.92-15.82 107.95-16.31 107.95-16.8L107.95-16.8Q107.95-19.14 107.87-21.44 107.8-23.73 107.8-26.07L107.8-26.07Q107.8-27.25 107.92-28.39 108.04-29.54 108.04-30.71L108.04-30.71Q108.04-30.86 107.95-31.1 107.85-31.35 107.75-31.45L107.75-31.45Q107.51-31.45 107.29-31.47 107.07-31.49 106.82-31.49L106.82-31.49Q106.29-31.49 105.8-31.35L105.8-31.35Q104.87-31.3 104.02-31.23 103.16-31.15 102.28-31.1L102.28-31.1Q101.7-31.15 101.57-31.13 101.45-31.1 101.31-31.1L101.31-31.1Q100.92-31.1 100.72-31.3L100.72-31.3 100.72-31.93Q100.43-32.52 100.48-32.57 100.52-32.62 100.52-32.71L100.52-32.71Q100.52-32.86 100.26-33.03 99.99-33.2 99.99-33.59L99.99-33.59Q99.94-33.98 99.79-34.18 99.65-34.38 99.65-34.57L99.65-34.57Q99.65-34.91 99.79-35.35L99.79-35.35Q100.23-35.6 100.65-35.69 101.06-35.79 101.6-35.94L101.6-35.94Q101.89-36.04 102.14-36.13 102.38-36.23 102.67-36.28L102.67-36.28Q103.01-36.33 103.36-36.33 103.7-36.33 104.04-36.38L104.04-36.38Q104.77-36.52 105.58-36.62 106.38-36.72 107.12-36.72L107.12-36.72Q107.8-36.72 108.48-36.55 109.17-36.38 109.7-36.38L109.7-36.38Q110.49-36.38 111.19-36.28 111.9-36.18 112.68-36.18L112.68-36.18Q112.78-36.18 113-36.11 113.22-36.04 113.51-36.04L113.51-36.04 118.25-36.04Q118.64-35.94 118.81-35.99 118.98-36.04 119.13-36.04L119.13-36.04Q119.52-36.04 119.86-35.99 120.2-35.94 120.59-35.94L120.59-35.94Q120.93-35.94 121.13-35.99L121.13-35.99Q121.52-35.94 121.86-35.77 122.2-35.6 122.64-35.6L122.64-35.6Q122.84-35.45 122.94-35.23 123.03-35.01 123.28-34.91ZM159.75-0.15L159.75-0.15Q159.51 0.1 159.21 0.15 158.92 0.2 158.63 0.2L158.63 0.2Q157.9 0.54 157.07 0.54L157.07 0.54Q156.53 0.24 156.48 0.34 156.43 0.44 156.28 0.54L156.28 0.54Q155.55 0.88 154.97 0.9 154.38 0.93 153.99 1.17L153.99 1.17Q153.6 0.88 153.57 0.32 153.55-0.24 153.45-0.63L153.45-0.63Q153.21-0.98 153.11-1.49 153.01-2 152.96-2.54 152.91-3.08 152.84-3.59 152.77-4.1 152.57-4.49L152.57-4.49Q152.52-4.74 152.55-4.93 152.57-5.13 152.48-5.37L152.48-5.37Q152.52-6.2 152.43-6.69 152.33-7.18 152.23-7.71L152.23-7.71Q152.18-8.01 152.18-8.37 152.18-8.74 151.89-8.94L151.89-8.94Q152.04-9.62 151.94-9.96 151.84-10.3 151.79-10.6L151.79-10.6Q151.74-10.99 151.74-11.45 151.74-11.91 151.65-12.3L151.65-12.3Q151.35-14.65 151.01-16.99 150.67-19.34 150.38-21.68L150.38-21.68Q150.08-21.44 149.96-20.95 149.84-20.46 149.74-20.07L149.74-20.07Q149.45-19.19 149.2-18.26 148.96-17.33 148.72-16.46L148.72-16.46Q148.62-16.06 148.54-15.55 148.47-15.04 148.32-14.65L148.32-14.65Q147.84-13.23 147.47-12.21 147.1-11.18 146.76-10.11L146.76-10.11Q146.66-9.52 146.57-8.98 146.47-8.45 146.37-7.91L146.37-7.91Q146.32-7.62 146.23-7.08 146.13-6.54 146.03-6.3L146.03-6.3Q145.93-6.05 145.86-5.96 145.79-5.86 145.83-5.62L145.83-5.62Q145.35-4.88 145.18-4 145-3.13 144.57-2.29L144.57-2.29Q144.57-1.71 144.13-1.27L144.13-1.27Q143.88-1.22 143.66-1.17 143.44-1.12 143.2-0.98L143.2-0.98Q142.95-1.07 142.64-1.1 142.32-1.12 142.03-1.12L142.03-1.12Q141.78-1.17 141.59-1.29 141.39-1.42 141.15-1.46L141.15-1.46Q140.9-1.76 140.61-1.98 140.32-2.2 140.02-2.44L140.02-2.44Q139.73-3.17 139.49-3.42L139.49-3.42Q139.34-3.96 139.1-4.42 138.85-4.88 138.75-5.47L138.75-5.47Q138.61-6.01 138.39-6.47 138.17-6.93 137.92-7.47L137.92-7.47Q137.83-7.81 137.7-8.13 137.58-8.45 137.44-8.79L137.44-8.79Q137.39-9.18 137.17-9.77 136.95-10.35 136.85-10.79L136.85-10.79Q136.85-10.84 136.68-11.3 136.51-11.77 136.34-12.3 136.17-12.84 136-13.28 135.82-13.72 135.78-13.77L135.78-13.77Q135.68-14.01 135.61-14.23 135.53-14.45 135.43-14.75L135.43-14.75Q135.24-15.38 134.95-16.04 134.65-16.7 134.36-17.29L134.36-17.29Q134.12-17.77 134.02-18.24 133.92-18.7 133.77-19.14L133.77-19.14Q133.68-19.38 133.6-19.58 133.53-19.78 133.43-20.02L133.43-20.02Q133.33-20.31 133.24-20.63 133.14-20.95 133.04-21.29L133.04-21.29Q132.8-21.19 132.82-20.87 132.85-20.56 132.8-20.31L132.8-20.31Q132.7-19.78 132.7-19.26 132.7-18.75 132.65-18.21L132.65-18.21Q132.55-17.63 132.46-17.09 132.36-16.55 132.31-16.02L132.31-16.02Q132.31-14.7 132.16-13.38L132.16-13.38Q132.07-12.21 131.92-11.01 131.77-9.81 131.72-8.54L131.72-8.54Q131.72-7.62 131.53-6.71 131.33-5.81 131.43-4.83L131.43-4.83Q131.33-4.64 131.33-4.54 131.33-4.44 131.33-4.25L131.33-4.25Q131.33-4 131.31-3.71 131.28-3.42 131.28-3.17L131.28-3.17Q131.28-2.73 131.38-2.59L131.38-2.59Q131.24-2.15 131.24-1.64 131.24-1.12 131.24-0.63L131.24-0.63Q131.14-0.44 131.11-0.24 131.09-0.05 130.94 0.15L130.94 0.15Q130.99 0.98 130.45 0.98L130.45 0.98Q130.31 0.98 130.14 0.9 129.97 0.83 129.87 0.68L129.87 0.68Q129.33 0.73 129.26 0.44 129.18 0.15 128.94 0.2L128.94 0.2Q128.35 0.44 128.28 0.34 128.21 0.24 127.96 0.29L127.96 0.29Q127.57-0.1 127.45-0.05 127.33 0 127.23 0L127.23 0Q126.79-0.15 126.74-0.07 126.69 0 126.55 0L126.55 0Q126.3-0.24 125.89-0.24 125.47-0.24 125.18-0.29L125.18-0.29Q125.13-0.49 125.11-0.66 125.08-0.83 125.08-1.07L125.08-1.07Q125.08-1.37 125.11-1.64 125.13-1.9 125.13-2.2L125.13-2.2Q125.13-2.44 125.11-2.71 125.08-2.98 125.08-3.32L125.08-3.32Q125.08-3.66 125.13-3.98 125.18-4.3 125.18-4.69L125.18-4.69Q125.18-4.83 125.13-4.96 125.08-5.08 125.08-5.27L125.08-5.27Q125.38-5.91 125.35-6.27 125.33-6.64 125.38-6.98L125.38-6.98Q125.47-7.81 125.55-8.62 125.62-9.42 125.72-10.25L125.72-10.25Q125.72-11.62 125.79-12.52 125.86-13.43 126.01-14.36L126.01-14.36Q126.11-14.79 126.18-15.19 126.25-15.58 126.35-16.02L126.35-16.02Q126.45-16.75 126.47-17.55 126.5-18.36 126.6-19.14L126.6-19.14Q126.69-20.36 126.84-21.56 126.99-22.75 127.08-23.93L127.08-23.93Q127.18-24.85 127.3-25.76 127.43-26.66 127.43-27.49L127.43-27.49Q127.43-27.93 127.55-28.61 127.67-29.3 127.72-29.79L127.72-29.79Q127.82-30.96 127.89-32.08 127.96-33.2 127.96-34.33L127.96-34.33 127.96-34.86Q127.96-34.96 128.06-35.06 128.16-35.16 128.16-35.4L128.16-35.4Q128.16-35.84 128.38-36.01 128.6-36.18 128.74-36.57L128.74-36.57Q128.99-36.57 129.31-36.52 129.62-36.47 129.77-36.23L129.77-36.23Q130.11-36.33 130.45-36.33 130.8-36.33 131.04-36.57L131.04-36.57Q131.33-36.57 131.48-36.43 131.63-36.28 131.87-36.18L131.87-36.18Q132.07-36.28 132.26-36.35 132.46-36.43 132.65-36.52L132.65-36.52Q132.8-36.43 132.87-36.3 132.94-36.18 133.09-36.13L133.09-36.13Q133.82-36.33 134.07-36.18L134.07-36.18Q134.16-35.99 134.19-35.79 134.21-35.6 134.26-35.4L134.26-35.4Q134.75-34.91 134.9-34.3 135.04-33.69 135.43-33.2L135.43-33.2Q135.53-32.91 135.65-32.62 135.78-32.32 135.87-31.93L135.87-31.93 136.02-31.35Q136.22-30.86 136.51-30.18L136.51-30.18Q136.75-29.25 136.95-28.27 137.14-27.29 137.58-26.46L137.58-26.46Q137.63-26.17 137.75-25.76 137.88-25.34 137.97-25.05L137.97-25.05Q138.32-24.22 138.68-23.41 139.05-22.61 139.34-21.68L139.34-21.68Q139.63-20.75 139.85-19.78 140.07-18.8 140.41-17.87L140.41-17.87Q140.71-16.99 140.85-16.6 141-16.21 141.24-15.82L141.24-15.82Q141.24-15.67 141.32-15.33 141.39-14.99 141.54-14.62 141.68-14.26 141.83-13.94 141.98-13.62 142.12-13.57L142.12-13.57Q142.27-13.67 142.29-13.87 142.32-14.06 142.47-14.21L142.47-14.21Q142.51-14.75 142.64-15.53 142.76-16.31 143-16.8L143-16.8Q143-17.04 143.12-17.7 143.25-18.36 143.44-19.12 143.64-19.87 143.81-20.51 143.98-21.14 144.13-21.29L144.13-21.29Q144.22-21.92 144.3-22.07 144.37-22.22 144.47-22.31L144.47-22.31Q144.52-22.71 144.66-23.05 144.81-23.39 144.86-23.78L144.86-23.78Q144.96-24.61 145.1-25.15 145.25-25.68 145.49-26.46L145.49-26.46Q145.69-27.15 145.86-27.86 146.03-28.56 146.27-29.25L146.27-29.25Q146.86-31.1 147.32-32.54 147.79-33.98 148.47-35.35L148.47-35.35Q148.62-35.79 148.72-35.89 148.81-35.99 148.91-36.08L148.91-36.08Q149.3-36.23 149.72-36.23 150.13-36.23 150.57-36.18L150.57-36.18Q151.06-36.38 151.3-36.62L151.3-36.62Q151.5-36.38 151.89-36.38L151.89-36.38Q152.38-36.38 152.57-36.67L152.57-36.67Q152.77-36.57 152.89-36.62 153.01-36.67 153.26-36.57L153.26-36.57Q153.35-36.67 153.5-36.79 153.65-36.91 153.79-36.91L153.79-36.91Q154.18-36.43 154.4-36.16 154.62-35.89 154.72-35.55L154.72-35.55Q154.87-35.11 154.89-34.59 154.92-34.08 155.16-33.64L155.16-33.64Q155.11-33.01 155.23-31.71 155.36-30.42 155.53-28.98 155.7-27.54 155.89-26.32 156.09-25.1 156.24-24.8L156.24-24.8Q156.19-24.17 156.28-23.73 156.38-23.29 156.38-22.85L156.38-22.85Q156.38-22.71 156.43-22.24 156.48-21.78 156.53-21.26 156.58-20.75 156.65-20.29 156.72-19.82 156.77-19.63L156.77-19.63Q156.77-18.75 157.07-18.26L157.07-18.26Q157.31-17.04 157.48-15.82 157.65-14.6 157.8-13.33L157.8-13.33Q157.9-12.7 157.92-12.11 157.94-11.52 158.04-10.89L158.04-10.89Q158.09-10.64 158.16-10.4 158.24-10.16 158.29-9.91L158.29-9.91Q158.38-9.42 158.43-8.98 158.48-8.54 158.58-8.11L158.58-8.11Q158.63-7.86 158.73-7.59 158.82-7.32 158.73-7.03L158.73-7.03Q158.82-6.69 158.8-6.3 158.77-5.91 158.97-5.62L158.97-5.62Q158.97-4.59 159.12-3.81L159.12-3.81Q159.16-3.22 159.41-2.64L159.41-2.64Q159.51-2.05 159.58-1.42 159.65-0.78 159.75-0.15ZM173.96-37.01L174.05-36.96Q174.3-36.08 174.54-35.23 174.79-34.38 175.13-33.54L175.13-33.54Q175.86-33.45 176.03-33.4 176.2-33.35 176.45-33.25L176.45-33.25Q176.98-31.98 177.11-30.54 177.23-29.1 177.47-27.73L177.47-27.73Q178.4-26.51 178.82-25.12 179.23-23.73 179.77-22.31L179.77-22.31Q179.91-21.83 179.96-21.7 180.01-21.58 180.01-21.48L180.01-21.48Q180.3-20.65 180.6-19.78 180.89-18.9 181.23-18.07L181.23-18.07Q181.38-17.63 181.55-17.21 181.72-16.8 181.87-16.41L181.87-16.41Q182.01-15.92 182.14-15.41 182.26-14.89 182.4-14.4L182.4-14.4Q182.75-13.43 183.14-12.45 183.53-11.47 183.92-10.5L183.92-10.5Q184.06-10.16 184.48-8.98 184.89-7.81 185.33-6.52 185.77-5.22 186.14-4.13 186.51-3.03 186.51-2.78L186.51-2.78Q186.51-2.39 186.58-1.98 186.65-1.56 186.7-1.12L186.7-1.12Q186.51-0.63 186.21-0.59 185.92-0.54 185.68-0.63L185.68-0.63Q185.43-0.54 185.21-0.44 184.99-0.34 184.8-0.24L184.8-0.24Q184.65-0.2 184.55-0.1 184.46 0 184.31 0L184.31 0Q183.72 0 183.55 0.12 183.38 0.24 183.04 0.24L183.04 0.24Q182.6 0.1 182.48 0.22 182.36 0.34 182.26 0.39L182.26 0.39Q182.06 0.49 181.82 0.49 181.57 0.49 181.33 0.54L181.33 0.54Q181.23 0.34 181.16 0.15 181.09-0.05 180.94-0.29L180.94-0.29Q180.4-1.07 180.18-1.81 179.96-2.54 179.82-2.98L179.82-2.98Q179.57-3.52 179.4-4.05 179.23-4.59 178.99-5.13L178.99-5.13Q178.69-5.03 178.45-4.91 178.21-4.79 178.06-4.59L178.06-4.59Q177.47-4.59 177.47-4.44 177.47-4.3 177.38-4.15L177.38-4.15Q177.08-4.05 176.91-3.96 176.74-3.86 176.35-3.91L176.35-3.91Q176.11-3.66 175.86-3.49 175.62-3.32 175.23-3.27L175.23-3.27Q174.84-2.88 174.42-2.61 174.01-2.34 173.47-2.49L173.47-2.49Q172.79-2.34 172.1-2.22 171.42-2.1 170.73-2.1L170.73-2.1Q169.95-2.34 169.76-2.54 169.56-2.73 169.17-2.73L169.17-2.73Q169.22-3.42 168.88-3.66L168.88-3.66Q168.88-3.81 168.9-4.13 168.93-4.44 169.03-4.54L169.03-4.54Q169.66-4.83 169.76-5.18 169.86-5.52 170.3-5.62L170.3-5.62Q170.39-5.81 170.51-5.98 170.64-6.15 170.73-6.35L170.73-6.35Q170.98-6.45 171.15-6.49 171.32-6.54 171.42-6.79L171.42-6.79Q171.66-6.79 172.15-7.1 172.64-7.42 172.79-7.62L172.79-7.62Q173.18-7.76 173.27-7.89 173.37-8.01 173.52-8.11L173.52-8.11Q174.01-8.06 174.15-8.2L174.15-8.2Q174.54-8.01 175.03-8.01L175.03-8.01Q175.23-8.01 175.37-8.03 175.52-8.06 175.71-8.06L175.71-8.06Q176.11-8.45 176.72-8.57 177.33-8.69 177.72-9.08L177.72-9.08Q177.57-9.47 177.47-10.03 177.38-10.6 177.13-10.94L177.13-10.94Q177.03-11.57 176.81-12.16 176.59-12.74 176.45-13.28L176.45-13.28Q175.91-15.33 175.18-17.29 174.45-19.24 173.96-21.29L173.96-21.29Q173.86-21.53 173.74-21.8 173.62-22.07 173.52-22.31L173.52-22.31Q173.27-21.73 173.27-21.66 173.27-21.58 173.18-21.48L173.18-21.48Q173.13-21.24 173.08-21.07 173.03-20.9 172.93-20.65L172.93-20.65Q172.79-20.26 172.66-19.8 172.54-19.34 172.44-18.95L172.44-18.95Q172.2-18.12 172-17.21 171.81-16.31 171.56-15.43L171.56-15.43Q171.08-13.92 170.56-12.43 170.05-10.94 169.56-9.42L169.56-9.42Q169.46-8.74 169.34-8.37 169.22-8.01 169.1-7.64 168.98-7.28 168.9-6.93 168.83-6.59 168.83-6.4L168.83-6.4Q168.15-4.83 167.68-3.22 167.22-1.61 166.54-0.1L166.54-0.1Q166.34 0 166.19 0.15 166.05 0.29 165.85 0.29L165.85 0.29Q165.46 0.29 165.44 0.1 165.41-0.1 165.22-0.1L165.22-0.1Q165.02-0.1 164.88-0.02 164.73 0.05 164.58 0.15L164.58 0.15Q164.34 0.05 164.02 0.02 163.7 0 163.56-0.2L163.56-0.2Q163.21 0.05 162.87 0.05L162.87 0.05Q162.48 0.05 162.09-0.2L162.09-0.2Q161.8-0.1 161.51-0.1L161.51-0.1Q161.36-0.1 161.16-0.15 160.97-0.2 160.87-0.29L160.87-0.29Q160.82-0.49 160.82-0.68 160.82-0.88 160.82-1.12L160.82-1.12Q160.82-1.61 160.72-1.86L160.72-1.86Q161.6-4.35 162.43-6.91 163.26-9.47 164.09-12.11L164.09-12.11Q164.53-13.33 164.95-14.5 165.36-15.67 165.75-16.89L165.75-16.89Q165.95-17.58 166.1-18.19 166.24-18.8 166.49-19.38L166.49-19.38Q166.88-20.65 167.29-21.95 167.71-23.24 168.05-24.51L168.05-24.51Q168.24-24.66 168.29-24.85 168.34-25.05 168.44-25.29L168.44-25.29 168.39-25.93Q168.73-26.42 168.85-26.78 168.98-27.15 169.03-27.54L169.03-27.54Q169.27-28.13 169.46-28.81 169.66-29.49 169.76-30.08L169.76-30.08Q169.86-30.86 169.88-31.86 169.9-32.86 170.15-33.54L170.15-33.54Q170.25-33.74 170.32-33.81 170.39-33.89 170.39-34.13L170.39-34.13Q170.49-34.23 170.61-34.35 170.73-34.47 170.78-34.62L170.78-34.62Q171.03-35.01 170.95-35.3 170.88-35.6 170.88-35.94L170.88-35.94Q171.32-36.18 171.27-36.38 171.22-36.57 171.22-36.77L171.22-36.77Q171.22-37.01 171.54-37.23 171.86-37.45 171.96-37.7L171.96-37.7Q172.25-37.65 172.54-37.62 172.83-37.6 173.13-37.65L173.13-37.65Q173.47-37.01 173.96-37.01L173.96-37.01ZM198.71-35.99L198.71-35.99Q198.81-35.79 198.93-35.72 199.05-35.64 199.1-35.4L199.1-35.4Q199.44-35.16 199.64-35.03 199.83-34.91 199.88-34.62L199.88-34.62Q200.32-34.28 200.4-34.18 200.47-34.08 200.52-33.94L200.52-33.94Q200.76-33.74 200.98-33.59 201.2-33.45 201.3-33.15L201.3-33.15Q201.69-32.81 201.79-32.62 201.88-32.42 201.93-32.18L201.93-32.18Q201.74-31.84 201.15-31.25 200.57-30.66 199.83-30 199.1-29.35 198.42-28.74 197.73-28.13 197.34-27.78L197.34-27.78Q197.25-27.59 197.1-27.44 196.95-27.29 196.86-27.1L196.86-27.1Q196.56-26.86 196.32-26.59 196.07-26.32 195.73-26.17L195.73-26.17Q195.24-25.49 194.36-24.83 193.49-24.17 193.19-23.54L193.19-23.54Q193.24-23.39 193.41-23.24 193.58-23.1 193.68-23L193.68-23Q194.07-22.61 194.61-22.29 195.15-21.97 195.54-21.58L195.54-21.58Q195.93-21.24 196.32-20.92 196.71-20.61 197.1-20.26L197.1-20.26Q197.29-20.07 197.59-19.68L197.59-19.68Q198.08-19.29 198.54-18.97 199-18.65 199.44-18.26L199.44-18.26Q200.37-17.48 201.25-16.67 202.13-15.87 203.11-15.09L203.11-15.09 203.5-14.65Q203.5-14.26 203.72-13.75 203.94-13.23 204.13-12.89L204.13-12.89Q204.03-12.4 204.15-12.28 204.28-12.16 204.37-12.06L204.37-12.06Q204.33-11.13 204.42-10.84L204.42-10.84Q203.59-10.11 202.89-9.5 202.18-8.89 201.64-8.3L201.64-8.3Q201.2-7.76 200.74-7.35 200.27-6.93 199.74-6.45L199.74-6.45Q199.44-6.05 199.25-5.91L199.25-5.91Q198.91-5.57 198.56-5.37L198.56-5.37Q197.98-4.83 197.42-4.35 196.86-3.86 196.32-3.37L196.32-3.37Q195.93-3.03 195.59-2.71 195.24-2.39 194.9-2L194.9-2Q194.61-1.71 194.24-1.32 193.88-0.93 193.49-0.68L193.49-0.68Q193.34-0.39 193.1-0.17 192.85 0.05 192.66 0.29L192.66 0.29Q192.31 0.49 192.02 0.68 191.73 0.88 191.34 1.07L191.34 1.07Q190.95 0.78 190.58 0.54 190.21 0.29 189.77 0.2L189.77 0.2Q189.48-0.05 189.34-0.29 189.19-0.54 188.8-0.63L188.8-0.63Q188.7-0.78 188.58-0.95 188.46-1.12 188.36-1.32L188.36-1.32Q187.77-1.37 187.43-2.05L187.43-2.05Q187.53-2.34 187.7-2.49 187.87-2.64 187.77-3.03L187.77-3.03Q188.07-3.52 188.48-3.88 188.9-4.25 189.29-4.64L189.29-4.64Q189.73-5.03 190.09-5.44 190.46-5.86 190.9-6.25L190.9-6.25Q191.14-6.49 191.39-6.71 191.63-6.93 191.92-7.18L191.92-7.18Q192.46-7.71 193.02-8.18 193.58-8.64 194.17-9.18L194.17-9.18Q194.95-9.96 195.78-10.67 196.61-11.38 197.29-12.26L197.29-12.26Q197.25-12.45 197.15-12.52 197.05-12.6 197-12.74L197-12.74Q196.22-13.48 195.46-14.18 194.71-14.89 193.83-15.43L193.83-15.43Q193.53-15.72 193.44-15.92L193.44-15.92Q192.56-16.55 191.75-17.33 190.95-18.12 189.97-18.65L189.97-18.65Q189.77-18.9 189.51-19.07 189.24-19.24 188.99-19.38L188.99-19.38Q188.85-19.63 188.68-19.8 188.51-19.97 188.26-20.07L188.26-20.07Q187.87-20.41 187.75-20.63 187.63-20.85 187.33-20.9L187.33-20.9Q187.24-21.14 187.02-21.29 186.8-21.44 186.55-21.63L186.55-21.63Q186.45-21.92 186.26-22.12L186.26-22.12Q186.21-22.51 186.31-22.68 186.41-22.85 186.45-22.95L186.45-22.95Q186.41-23.24 186.19-23.39 185.97-23.54 185.97-23.88L185.97-23.88Q185.97-24.07 186.09-24.15 186.21-24.22 186.26-24.37L186.26-24.37 186.41-25.1Q186.8-25.39 187.06-25.81 187.33-26.22 187.77-26.46L187.77-26.46Q188.26-27.2 188.99-27.69L188.99-27.69Q189.24-28.08 189.6-28.32 189.97-28.56 190.21-28.96L190.21-28.96Q190.61-29.2 190.87-29.49 191.14-29.79 191.53-30.03L191.53-30.03Q191.63-30.22 191.75-30.35 191.87-30.47 191.92-30.62L191.92-30.62Q193.24-31.88 194.24-32.81 195.24-33.74 196.32-34.67L196.32-34.67Q196.61-34.91 196.9-35.21 197.2-35.5 197.54-35.74L197.54-35.74Q197.64-35.84 197.78-35.84 197.93-35.84 198.08-35.94L198.08-35.94Q198.66-35.94 198.71-35.99ZM227.03-34.91L227.03-34.91Q226.93-34.72 226.96-34.52 226.98-34.33 226.98-34.08L226.98-34.08Q226.88-33.5 226.98-33.5 227.08-33.5 227.08-33.4L227.08-33.4 226.74-32.91Q226.74-32.62 226.61-32.37 226.49-32.13 226.54-31.79L226.54-31.79Q226.39-31.54 226.27-31.3 226.15-31.05 225.91-30.81L225.91-30.81 225.27-30.81Q224.73-30.81 224.12-30.74 223.51-30.66 222.93-30.66L222.93-30.66Q222.83-30.66 222.68-30.69 222.54-30.71 222.39-30.71L222.39-30.71Q222.29-30.71 222.15-30.69 222-30.66 221.8-30.66L221.8-30.66Q221.07-30.66 220.36-30.74 219.66-30.81 218.87-30.81L218.87-30.81Q218.68-30.81 218.48-30.81 218.29-30.81 218.04-30.76L218.04-30.76Q218-29.93 217.97-29.08 217.95-28.22 217.95-27.34L217.95-27.34Q217.95-27.1 217.9-26.83 217.85-26.56 217.85-26.32L217.85-26.32Q217.8-25.68 217.78-25.1 217.75-24.51 217.75-23.88L217.75-23.88Q217.75-22.51 217.78-21.14 217.8-19.78 217.85-18.36L217.85-18.36Q217.9-17.63 217.95-16.94 218-16.26 218-15.53L218-15.53Q218-13.87 217.95-12.23 217.9-10.6 217.9-8.94L217.9-8.94Q217.9-8.4 217.85-7.93 217.8-7.47 217.8-6.93L217.8-6.93Q217.8-5.81 217.85-4.69 217.9-3.56 217.9-2.44L217.9-2.44Q217.9-1.9 217.87-1.37 217.85-0.83 217.85-0.29L217.85-0.29Q217.6 0.1 217.51 0.39 217.41 0.68 216.92 0.68L216.92 0.68Q216.58 0.59 216.6 0.46 216.63 0.34 216.53 0.24L216.53 0.24Q216.09 0.2 215.87 0.32 215.65 0.44 215.36 0.54L215.36 0.54Q215.21 0.49 215.04 0.49 214.87 0.49 214.72 0.49L214.72 0.49Q214.63 0.49 214.53 0.56 214.43 0.63 214.09 0.63L214.09 0.63Q213.8 0.68 213.75 0.54 213.7 0.39 213.45 0.39L213.45 0.39Q213.21 0.54 212.89 0.61 212.58 0.68 212.28 0.68L212.28 0.68Q211.99 0.49 212.01 0.32 212.04 0.15 211.94-0.05L211.94-0.05Q211.89-0.15 211.77-0.32 211.65-0.49 211.55-0.59L211.55-0.59Q211.65-1.27 211.7-1.81 211.75-2.34 211.75-2.98L211.75-2.98Q211.75-4.25 211.65-5.47 211.55-6.69 211.55-7.96L211.55-7.96Q211.55-8.35 211.65-8.79 211.75-9.23 211.75-9.72L211.75-9.72Q211.65-10.11 211.7-10.18 211.75-10.25 211.75-10.35L211.75-10.35Q211.75-10.64 211.72-10.94 211.7-11.23 211.7-11.52L211.7-11.52Q211.7-12.11 211.72-12.7 211.75-13.28 211.75-13.87L211.75-13.87Q211.75-14.11 211.72-14.38 211.7-14.65 211.7-14.89L211.7-14.89Q211.65-15.33 211.67-15.82 211.7-16.31 211.7-16.8L211.7-16.8Q211.7-19.14 211.62-21.44 211.55-23.73 211.55-26.07L211.55-26.07Q211.55-27.25 211.67-28.39 211.79-29.54 211.79-30.71L211.79-30.71Q211.79-30.86 211.7-31.1 211.6-31.35 211.5-31.45L211.5-31.45Q211.26-31.45 211.04-31.47 210.82-31.49 210.57-31.49L210.57-31.49Q210.04-31.49 209.55-31.35L209.55-31.35Q208.62-31.3 207.77-31.23 206.91-31.15 206.03-31.1L206.03-31.1Q205.45-31.15 205.32-31.13 205.2-31.1 205.06-31.1L205.06-31.1Q204.67-31.1 204.47-31.3L204.47-31.3 204.47-31.93Q204.18-32.52 204.23-32.57 204.27-32.62 204.27-32.71L204.27-32.71Q204.27-32.86 204.01-33.03 203.74-33.2 203.74-33.59L203.74-33.59Q203.69-33.98 203.54-34.18 203.4-34.38 203.4-34.57L203.4-34.57Q203.4-34.91 203.54-35.35L203.54-35.35Q203.98-35.6 204.4-35.69 204.81-35.79 205.35-35.94L205.35-35.94Q205.64-36.04 205.89-36.13 206.13-36.23 206.42-36.28L206.42-36.28Q206.76-36.33 207.11-36.33 207.45-36.33 207.79-36.38L207.79-36.38Q208.52-36.52 209.33-36.62 210.13-36.72 210.87-36.72L210.87-36.72Q211.55-36.72 212.23-36.55 212.92-36.38 213.45-36.38L213.45-36.38Q214.24-36.38 214.94-36.28 215.65-36.18 216.43-36.18L216.43-36.18Q216.53-36.18 216.75-36.11 216.97-36.04 217.26-36.04L217.26-36.04 222-36.04Q222.39-35.94 222.56-35.99 222.73-36.04 222.88-36.04L222.88-36.04Q223.27-36.04 223.61-35.99 223.95-35.94 224.34-35.94L224.34-35.94Q224.68-35.94 224.88-35.99L224.88-35.99Q225.27-35.94 225.61-35.77 225.95-35.6 226.39-35.6L226.39-35.6Q226.59-35.45 226.69-35.23 226.78-35.01 227.03-34.91ZM236.74-12.79L236.74-12.79Q236.84-12.55 237.45-11.77 238.06-10.99 238.84-10.06 239.62-9.13 240.33-8.28 241.04-7.42 241.33-7.03L241.33-7.03Q241.87-6.35 242.38-5.69 242.89-5.03 243.33-4.3L243.33-4.3 244.21-2.83Q244.6-2.34 244.92-2 245.24-1.66 245.43-1.07L245.43-1.07Q245.53-0.68 245.53-0.54L245.53-0.54Q245.53-0.2 245.29-0.05L245.29-0.05Q244.9-0.05 244.87 0.07 244.85 0.2 244.65 0.29L244.65 0.29Q244.46 0.39 244.04 0.42 243.63 0.44 243.38 0.44L243.38 0.44Q242.94 0.44 242.28 0.42 241.63 0.39 241.23 0.54L241.23 0.54Q241.14 0.59 240.94 0.68 240.75 0.78 240.65 0.78L240.65 0.78Q240.26 0.78 240.09 0.66 239.92 0.54 239.62 0.49L239.62 0.49Q239.23 0.05 238.96-0.42 238.7-0.88 238.35-1.37L238.35-1.37Q238.01-1.71 237.67-1.98 237.33-2.25 237.08-2.59L237.08-2.59Q236.35-3.66 235.57-4.69 234.79-5.71 233.96-6.69L233.96-6.69Q233.57-7.23 233.13-7.67 232.69-8.11 232.3-8.64L232.3-8.64Q231.91-9.13 231.57-9.69 231.23-10.25 230.88-10.79L230.88-10.79Q230.59-11.23 230.1-11.94 229.61-12.65 229.03-13.35 228.44-14.06 227.86-14.7 227.27-15.33 226.88-15.67L226.88-15.67Q226.83-15.97 226.64-16.14 226.44-16.31 226.2-16.46L226.2-16.46Q226.1-16.7 225.98-16.92 225.85-17.14 225.85-17.38L225.85-17.38Q225.85-17.72 226-18.02L226-18.02Q226.1-18.21 226.12-18.38 226.15-18.55 226.24-18.75L226.24-18.75Q226.49-19.29 226.9-19.8 227.32-20.31 227.56-20.9L227.56-20.9Q227.66-21.04 227.66-21.22 227.66-21.39 227.76-21.53L227.76-21.53Q227.86-21.92 228.17-22.19 228.49-22.46 228.69-22.8L228.69-22.8Q228.93-23.19 229.15-23.61 229.37-24.02 229.61-24.51L229.61-24.51Q230.35-25.73 231.15-26.88 231.96-28.03 232.79-29.2L232.79-29.2Q233.42-30.18 234.03-31.08 234.64-31.98 235.28-32.91L235.28-32.91Q235.62-33.35 236.01-33.94 236.4-34.52 236.86-35.11 237.33-35.69 237.82-36.18 238.31-36.67 238.79-36.96L238.79-36.96Q239.53-37.01 239.77-36.65 240.01-36.28 240.5-36.28L240.5-36.28Q241.14-36.13 241.33-35.89 241.53-35.64 241.77-35.4L241.77-35.4Q242.46-35.4 242.87-35.16 243.29-34.91 243.68-34.42L243.68-34.42Q243.53-33.89 243.24-33.47 242.94-33.06 242.7-32.62L242.7-32.62Q242.31-32.42 242.14-32.08 241.97-31.74 241.63-31.54L241.63-31.54Q241.14-30.71 240.6-29.96 240.06-29.2 239.53-28.47L239.53-28.47Q239.23-28.03 238.92-27.69 238.6-27.34 238.35-26.95L238.35-26.95Q238.26-26.81 238.18-26.64 238.11-26.46 238.01-26.32L238.01-26.32Q237.43-25.39 236.74-24.58 236.06-23.78 235.47-22.8L235.47-22.8Q235.28-22.46 235.16-22.09 235.03-21.73 234.84-21.39L234.84-21.39Q234.64-21.09 234.28-20.61 233.91-20.12 233.57-19.56 233.23-18.99 232.96-18.48 232.69-17.97 232.69-17.63L232.69-17.63Q232.74-17.38 233.3-16.67 233.86-15.97 234.57-15.16 235.28-14.36 235.91-13.65 236.55-12.94 236.74-12.79ZM239.97-21.68L239.97-21.68Q240.31-20.95 240.7-20.41L240.7-20.41Q240.84-20.21 241.04-20.07 241.23-19.92 241.33-19.68L241.33-19.68Q241.43-19.58 241.53-19.26 241.63-18.95 241.72-18.8L241.72-18.8Q241.87-18.41 242.31-17.92 242.75-17.43 242.75-17.04L242.75-17.04Q242.75-16.8 242.65-16.5 242.55-16.21 242.5-15.97L242.5-15.97Q242.46-15.67 242.46-15.36 242.46-15.04 242.26-14.79L242.26-14.79Q242.02-14.55 241.72-14.5 241.43-14.45 241.19-14.26L241.19-14.26Q241.09-14.16 240.89-13.92 240.7-13.67 240.5-13.38 240.31-13.09 240.14-12.82 239.97-12.55 239.97-12.4L239.97-12.4Q239.38-12.35 239.21-12.38 239.04-12.4 238.84-12.35L238.84-12.35Q238.6-12.6 238.33-12.77 238.06-12.94 237.67-13.09L237.67-13.09Q237.57-13.48 237.23-13.99 236.89-14.5 236.64-14.84L236.64-14.84 236.3-15.28Q235.57-16.31 234.96-17.26 234.35-18.21 234.06-19.38L234.06-19.38Q234.98-20.07 235.5-20.41 236.01-20.75 236.6-21.04 237.18-21.34 237.74-21.61 238.31-21.88 238.79-22.27L238.79-22.27Q239.18-22.27 239.33-22.22 239.48-22.17 239.53-22.12 239.57-22.07 239.65-21.95 239.72-21.83 239.97-21.68ZM270.24-4.69L270.24-4.69Q270.19-3.96 270.55-3.59 270.92-3.22 271.16-2.69L271.16-2.69Q271.07-2 271.31-1.61L271.31-1.61Q271.16-1.32 271.02-0.95 270.87-0.59 270.58-0.34L270.58-0.34Q269.8 0 269.65 0.24 269.5 0.49 269.06 0.49L269.06 0.49Q268.82 0.73 268.53 1 268.23 1.27 267.99 1.51L267.99 1.51Q267.75 1.42 267.65 1.27 267.55 1.12 267.36 0.88L267.36 0.88Q266.87 0.73 266.48 0.37 266.09 0 265.79-0.46 265.5-0.93 265.23-1.44 264.96-1.95 264.77-2.39L264.77-2.39Q264.08-3.66 263.38-4.96 262.67-6.25 261.94-7.52L261.94-7.52Q261.54-8.15 261.18-8.81 260.81-9.47 260.42-10.16L260.42-10.16Q260.32-10.25 260.23-10.38 260.13-10.5 260.03-10.64L260.03-10.64Q259.69-11.13 259.52-11.74 259.35-12.35 258.81-12.74L258.81-12.74Q257.88-12.84 257.13-12.48 256.37-12.11 255.78-11.52L255.78-11.52Q255.83-11.18 255.83-10.89 255.83-10.6 255.83-10.3L255.83-10.3Q255.83-9.18 255.73-8.15 255.64-7.13 255.64-6.01L255.64-6.01Q255.64-5.52 255.69-5 255.73-4.49 255.83-4L255.83-4Q255.69-3.47 255.69-2.83L255.69-2.83Q255.69-2.49 255.76-2.2 255.83-1.9 255.83-1.56L255.83-1.56Q255.83-1.07 255.51-0.9 255.2-0.73 255.29-0.29L255.29-0.29Q254.71-0.05 254.17 0.2 253.63 0.44 253.05 0.54L253.05 0.54Q252.8 0.59 252.56 0.56 252.32 0.54 252.12 0.63L252.12 0.63Q251.88 0.73 251.73 1 251.58 1.27 251.34 1.27L251.34 1.27Q251.05 1.27 251 1.05 250.95 0.83 250.8 0.68L250.8 0.68Q250.56 0.59 250.41 0.59 250.27 0.59 250.12 0.44L250.12 0.44Q250.17 0 249.92-0.22 249.68-0.44 249.68-1.12L249.68-1.12Q249.68-1.66 249.75-2.15 249.83-2.64 249.83-3.17L249.83-3.17Q249.83-3.61 249.7-3.98 249.58-4.35 249.48-4.79L249.48-4.79Q249.44-4.98 249.48-5.18 249.53-5.37 249.53-5.57L249.53-5.57Q249.53-6.45 249.46-7.35 249.39-8.25 249.39-9.13L249.39-9.13Q249.39-9.47 249.39-9.77 249.39-10.06 249.44-10.35L249.44-10.35Q249.53-10.64 249.61-10.84 249.68-11.04 249.68-11.33L249.68-11.33Q249.68-12.26 249.48-13.16 249.29-14.06 249.29-14.94L249.29-14.94Q249.29-15.43 249.31-15.94 249.34-16.46 249.34-16.94L249.34-16.94Q249.34-18.36 249.29-19.73 249.24-21.09 249.24-22.46L249.24-22.46Q249.24-23.44 249.29-24.39 249.34-25.34 249.34-26.32L249.34-26.32Q249.34-27.54 249.24-28.74 249.14-29.93 249.14-31.2L249.14-31.2Q249.14-31.64 249.09-31.79 249.04-31.93 248.95-31.96 248.85-31.98 248.73-32.01 248.61-32.03 248.51-32.18L248.51-32.18Q248.51-32.47 248.75-32.59 249-32.71 249-33.4L249-33.4Q249-33.79 248.92-34.18 248.85-34.57 248.85-34.96L248.85-34.96Q248.85-35.55 249.09-36.13 249.34-36.72 249.53-37.26L249.53-37.26Q250.12-37.3 250.34-37.26 250.56-37.21 250.8-37.3L250.8-37.3Q250.95-36.77 251.44-36.74 251.93-36.72 252.32-36.62L252.32-36.62Q252.76-36.57 253.17-36.4 253.59-36.23 253.98-36.23L253.98-36.23Q254.07-35.94 254.39-35.82 254.71-35.69 255.05-35.6L255.05-35.6Q255.44-35.64 255.66-35.94 255.88-36.23 256.27-36.23L256.27-36.23Q256.56-36.23 256.95-35.82 257.35-35.4 257.54-35.16L257.54-35.16Q257.74-35.01 258.27-34.52 258.81-34.03 259.45-33.52 260.08-33.01 260.62-32.54 261.15-32.08 261.3-32.03L261.3-32.03Q263.3-30.03 265.04-28.39 266.77-26.76 268.82-25.44L268.82-25.44Q268.87-25.29 268.94-25.2 269.02-25.1 269.11-24.95L269.11-24.95Q269.11-24.56 268.97-24.37 268.82-24.17 268.82-23.88L268.82-23.88Q268.82-23.73 268.89-23.58 268.97-23.44 268.97-23.29L268.97-23.29Q269.02-23.1 268.99-22.92 268.97-22.75 268.97-22.56L268.97-22.56Q268.97-22.07 269.28-21.68 269.6-21.29 269.6-20.8L269.6-20.8Q269.5-20.36 269.21-20.26 268.92-20.17 268.72-20.02L268.72-20.02Q268.62-19.92 268.55-19.78 268.48-19.63 268.38-19.53L268.38-19.53Q267.31-19.04 266.82-18.63 266.33-18.21 265.79-17.82L265.79-17.82Q265.65-17.72 265.3-17.5 264.96-17.29 264.62-17.07 264.28-16.85 264.01-16.6 263.74-16.36 263.74-16.21L263.74-16.21Q263.74-15.87 264.16-15.26 264.57-14.65 264.77-14.31L264.77-14.31Q265.3-13.43 265.74-12.57 266.18-11.72 266.72-10.89L266.72-10.89Q267.7-9.38 268.55-7.81 269.41-6.25 270.24-4.69ZM262.28-22.85L262.28-22.85Q261.15-24.27 259.86-25.42 258.57-26.56 257.39-27.83L257.39-27.83 256.86-27.93Q256.56-28.42 256.2-28.78 255.83-29.15 255.44-29.54L255.44-29.54Q255.49-29 255.49-28.52 255.49-28.03 255.49-27.49L255.49-27.49Q255.49-25.93 255.42-24.44 255.34-22.95 255.34-21.44L255.34-21.44Q255.34-19.92 255.49-18.55L255.49-18.55Q256.52-18.55 257.35-19.14L257.35-19.14Q257.69-19.38 257.98-19.65 258.27-19.92 258.62-20.17L258.62-20.17Q259.01-20.41 259.52-20.75 260.03-21.09 260.54-21.44 261.06-21.78 261.52-22.14 261.98-22.51 262.28-22.85Z" opacity="1" transform="matrix(1,0,0,1,0,0)" fill="#ff4057" class="wordmark-text-0" data-fill-palette-color="primary" id="text-0"></path></svg></g></svg></g></svg></g></svg></g><g><svg viewBox="0 0 38.03083516276546 78.77364284278536" height="78.77364284278536" width="38.03083516276546"><g><svg xmlns="http://www.w3.org/2000/svg" xmlns:xlink="http://www.w3.org/1999/xlink" xmlns:a="http://ns.adobe.com/AdobeSVGViewerExtensions/3.0/" version="1.1" x="0" y="0" viewBox="0 0 46.922000000000004 97.19" enable-background="new -26.539 -1 100 100" xml:space="preserve" height="78.77364284278536" width="38.03083516276546" class="icon-icon-0" data-fill-palette-color="accent" id="icon-0"><path d="M44.922 0H2 0v2 68.48V95v2.19l2.181-0.198 11.241-1.022 1.027-0.094 0.52-0.891 5.961-10.215 0.501-0.858-0.382-0.919c-0.124-0.296-0.186-0.599-0.186-0.898 0-1.361 1.166-2.469 2.599-2.469 1.434 0 2.6 1.107 2.6 2.469 0 0.3-0.063 0.603-0.186 0.898l-0.383 0.919 0.501 0.858 5.961 10.215 0.52 0.891L33.5 95.97l11.24 1.022 2.182 0.198V95 71.21 2 0H44.922zM44.922 71.21V95l-11.24-1.022-5.961-10.215c0.215-0.516 0.34-1.079 0.34-1.668 0-2.469-2.059-4.469-4.6-4.469-2.539 0-4.599 2-4.599 4.469 0 0.589 0.125 1.152 0.34 1.668l-5.961 10.215L2 95V70.48 2h42.922V71.21z" fill="#dcdcdc" data-fill-palette-color="accent"></path><path d="M40.834 75.538h2v-2V71.45v-0.978V69.45v-0.978V19.33v-2-3.066-0.044-1.956-0.044V6.087v-2h-2H6.088h-2v2 6.132 0.044 1.956 0.044 3.066 2 49.143 0.978 1.022 0.978 2.088 2h2H40.834zM6.088 6.087h34.746v6.132H6.088V6.087zM6.088 14.264h34.746v3.066H6.088V14.264zM37.664 63.341v-3.111h3.17v3.111H37.664zM40.834 65.34v3.133h-3.17V65.34H40.834zM37.664 58.23v-3.109h3.17v3.109H37.664zM37.664 53.121V50.01h3.17v3.111H37.664zM37.664 48.011v-3.109h3.17v3.109H37.664zM37.664 42.901v-3.109h3.17v3.109H37.664zM37.664 37.791v-3.109h3.17v3.109H37.664zM37.664 32.68v-3.109h3.17v3.109H37.664zM37.664 27.57v-3.109h3.17v3.109H37.664zM37.664 22.462V19.33h3.17v3.132H37.664zM32.585 63.341v-3.111h3.092v3.111H32.585zM35.677 65.34v3.133h-3.092V65.34H35.677zM32.585 58.23v-3.109h3.092v3.109H32.585zM32.585 53.121V50.01h3.092v3.111H32.585zM32.585 48.011v-3.109h3.092v3.109H32.585zM32.585 42.901v-3.109h3.092v3.109H32.585zM32.585 37.791v-3.109h3.092v3.109H32.585zM32.585 32.68v-3.109h3.092v3.109H32.585zM32.585 27.57v-3.109h3.092v3.109H32.585zM32.585 22.462V19.33h3.092v3.132H32.585zM25.516 50.01v2.088h-4.109v-2.087h0.022v-2h-0.022v-3.109h4.109v3.109h-0.021v1.999H25.516zM25.506 62.274l0.009 6.198h-4.106l0.008-6.198H25.506zM21.419 60.273l0.008-6.175h4.067l0.009 6.175H21.419zM16.336 42.922v-0.625h0.011v-5.553h14.235v5.553h0.004v0.625H16.336zM16.325 63.341v-3.11h3.094v3.11H16.325zM19.419 65.341v3.132h-3.094v-3.132H19.419zM16.325 58.229v-3.108h3.094v3.108H16.325zM16.325 53.12v-3.109h3.094v3.109H16.325zM16.325 48.011v-3.109h3.094v3.109H16.325zM27.503 65.34h3.092v3.133h-3.092V65.34zM27.503 63.341v-3.111h3.092v3.111H27.503zM27.503 58.23v-3.109h3.092v3.109H27.503zM27.503 53.121V50.01h3.092v3.111H27.503zM27.503 48.011v-3.109h3.092v3.109H27.503zM30.104 34.892H16.818h-0.493v-0.211h0.024v-0.009h-0.013V32.68h-0.011v-3.109h0.011v-2h-0.011v-3.109h0.011v-1.999h-0.011v-3.088h0.493 0.429 12.484 0.372 0.491 0.034v0.799 13.889 0.799h-0.034v0.032H30.104zM11.245 63.341v-3.11h3.093v3.11H11.245zM14.337 65.341v3.132h-3.093v-3.132H14.337zM11.245 58.229v-3.108h3.093v3.108H11.245zM11.245 53.12v-3.109h3.093v3.109H11.245zM11.245 48.011v-3.109h3.093v3.109H11.245zM11.245 42.901v-3.109h3.093v3.109H11.245zM11.245 37.791v-3.109h3.093v3.109H11.245zM11.245 32.68v-3.109h3.093v3.109H11.245zM11.245 27.57v-3.109h3.093v3.109H11.245zM11.245 22.462V19.33h3.093v3.132H11.245zM6.088 19.33h3.167v3.132H6.088V19.33zM6.088 24.461h3.167v3.109H6.088V24.461zM6.088 29.571h3.167v3.109H6.088V29.571zM6.088 34.681h3.167v3.109H6.088V34.681zM6.088 39.792h3.167v3.109H6.088V39.792zM6.088 44.901h3.167v3.109H6.088V44.901zM6.088 50.011h3.167v3.109H6.088V50.011zM6.088 55.121h3.167v3.108H6.088V55.121zM6.088 60.23h3.167v3.11H6.088V60.23zM6.088 65.341h3.167v3.132H6.088V65.341zM6.072 72.963V71.45v-0.306-0.593h0.016 0.93 32.886 0.931 0.016v0.593 0.306 1.513 0.593h-0.946H7.018 6.072V72.963z" fill="#dcdcdc" data-fill-palette-color="accent"></path></svg></g></svg></g></svg></g><defs></defs></svg><rect width="395.5199999999999" height="69.70034880508628" fill="none" stroke="none" visibility="hidden"></rect></g></svg></g></svg>